<mxfile host="app.diagrams.net" modified="2023-11-24T02:27:38.218Z" agent="Mozilla/5.0 (Macintosh; Intel Mac OS X 10_15_7) AppleWebKit/537.36 (KHTML, like Gecko) Chrome/119.0.0.0 Safari/537.36 Edg/119.0.0.0" etag="L5ZQg-hCSy8AqNslUog9" version="22.1.3" type="github">
  <diagram name="第 1 页" id="3ccSsQndsvIlASR2qpMF">
    <mxGraphModel dx="1018" dy="583" grid="1" gridSize="10" guides="1" tooltips="1" connect="1" arrows="1" fold="1" page="1" pageScale="1" pageWidth="1169" pageHeight="1654" math="1" shadow="0">
      <root>
        <mxCell id="0" />
        <mxCell id="1" parent="0" />
        <mxCell id="ZBjMDcbzEfycAEF8BUTq-7" style="rounded=0;orthogonalLoop=1;jettySize=auto;html=1;entryX=0.5;entryY=0;entryDx=0;entryDy=0;endArrow=none;endFill=0;exitX=0;exitY=1;exitDx=0;exitDy=0;fontFamily=Times New Roman;fontSize=18;" parent="1" source="ZBjMDcbzEfycAEF8BUTq-1" target="ZBjMDcbzEfycAEF8BUTq-2" edge="1">
          <mxGeometry relative="1" as="geometry">
            <mxPoint x="104" y="201" as="sourcePoint" />
          </mxGeometry>
        </mxCell>
        <mxCell id="ZBjMDcbzEfycAEF8BUTq-9" style="edgeStyle=none;shape=connector;rounded=0;orthogonalLoop=1;jettySize=auto;html=1;exitX=1;exitY=1;exitDx=0;exitDy=0;entryX=0.5;entryY=0;entryDx=0;entryDy=0;labelBackgroundColor=default;strokeColor=default;align=center;verticalAlign=middle;fontFamily=Times New Roman;fontSize=18;fontColor=default;endArrow=none;endFill=0;" parent="1" source="ZBjMDcbzEfycAEF8BUTq-1" target="ZBjMDcbzEfycAEF8BUTq-3" edge="1">
          <mxGeometry relative="1" as="geometry" />
        </mxCell>
        <mxCell id="ZBjMDcbzEfycAEF8BUTq-1" value="A" style="ellipse;whiteSpace=wrap;html=1;aspect=fixed;fontFamily=Times New Roman;fontSize=18;fillColor=none;gradientColor=none;strokeColor=#000000;" parent="1" vertex="1">
          <mxGeometry x="114" y="171" width="30" height="30" as="geometry" />
        </mxCell>
        <mxCell id="ZBjMDcbzEfycAEF8BUTq-8" style="rounded=0;orthogonalLoop=1;jettySize=auto;html=1;exitX=1;exitY=0.5;exitDx=0;exitDy=0;endArrow=none;endFill=0;fontFamily=Times New Roman;fontSize=18;" parent="1" source="ZBjMDcbzEfycAEF8BUTq-2" target="ZBjMDcbzEfycAEF8BUTq-3" edge="1">
          <mxGeometry relative="1" as="geometry" />
        </mxCell>
        <mxCell id="ZBjMDcbzEfycAEF8BUTq-2" value="B" style="ellipse;whiteSpace=wrap;html=1;aspect=fixed;fontFamily=Times New Roman;fontSize=18;fillColor=none;gradientColor=#7ea6e0;strokeColor=#000000;" parent="1" vertex="1">
          <mxGeometry x="84" y="221" width="30" height="30" as="geometry" />
        </mxCell>
        <mxCell id="ZBjMDcbzEfycAEF8BUTq-3" value="C" style="ellipse;whiteSpace=wrap;html=1;aspect=fixed;fontFamily=Times New Roman;fontSize=18;fillColor=none;gradientColor=#7ea6e0;strokeColor=#000000;" parent="1" vertex="1">
          <mxGeometry x="144" y="221" width="30" height="30" as="geometry" />
        </mxCell>
        <mxCell id="ZBjMDcbzEfycAEF8BUTq-10" value="&lt;font style=&quot;font-weight: normal; font-size: 18px;&quot;&gt;$$u_0$$&lt;/font&gt;" style="text;html=1;strokeColor=none;fillColor=none;align=center;verticalAlign=middle;whiteSpace=wrap;rounded=0;fontSize=18;fontFamily=Times New Roman;fontColor=default;strokeWidth=1;fontStyle=1" parent="1" vertex="1">
          <mxGeometry x="100" y="139" width="60" height="30" as="geometry" />
        </mxCell>
        <mxCell id="ZBjMDcbzEfycAEF8BUTq-11" value="&lt;font style=&quot;font-size: 18px;&quot;&gt;&lt;b style=&quot;font-size: 18px;&quot;&gt;$$u_1$$&lt;/b&gt;&lt;/font&gt;" style="text;html=1;strokeColor=none;fillColor=none;align=center;verticalAlign=middle;whiteSpace=wrap;rounded=0;fontSize=18;fontFamily=Times New Roman;fontColor=default;strokeWidth=1;" parent="1" vertex="1">
          <mxGeometry x="40" y="220" width="60" height="30" as="geometry" />
        </mxCell>
        <mxCell id="ZBjMDcbzEfycAEF8BUTq-12" value="&lt;font style=&quot;font-size: 18px;&quot;&gt;&lt;b style=&quot;font-size: 18px;&quot;&gt;$$u_2$$&lt;/b&gt;&lt;/font&gt;" style="text;html=1;strokeColor=none;fillColor=none;align=center;verticalAlign=middle;whiteSpace=wrap;rounded=0;fontSize=18;fontFamily=Times New Roman;fontColor=default;strokeWidth=1;" parent="1" vertex="1">
          <mxGeometry x="160" y="220" width="60" height="30" as="geometry" />
        </mxCell>
        <mxCell id="ZBjMDcbzEfycAEF8BUTq-23" style="edgeStyle=none;shape=connector;rounded=0;orthogonalLoop=1;jettySize=auto;html=1;exitX=0;exitY=1;exitDx=0;exitDy=0;entryX=1;entryY=0;entryDx=0;entryDy=0;labelBackgroundColor=default;strokeColor=default;align=center;verticalAlign=middle;fontFamily=Times New Roman;fontSize=18;fontColor=default;endArrow=none;endFill=0;" parent="1" source="ZBjMDcbzEfycAEF8BUTq-13" target="ZBjMDcbzEfycAEF8BUTq-14" edge="1">
          <mxGeometry relative="1" as="geometry" />
        </mxCell>
        <mxCell id="ZBjMDcbzEfycAEF8BUTq-26" style="edgeStyle=none;shape=connector;rounded=0;orthogonalLoop=1;jettySize=auto;html=1;exitX=0.5;exitY=1;exitDx=0;exitDy=0;entryX=0.5;entryY=0;entryDx=0;entryDy=0;labelBackgroundColor=default;strokeColor=default;align=center;verticalAlign=middle;fontFamily=Times New Roman;fontSize=18;fontColor=default;endArrow=none;endFill=0;" parent="1" source="ZBjMDcbzEfycAEF8BUTq-13" target="ZBjMDcbzEfycAEF8BUTq-15" edge="1">
          <mxGeometry relative="1" as="geometry" />
        </mxCell>
        <mxCell id="ZBjMDcbzEfycAEF8BUTq-27" style="edgeStyle=none;shape=connector;rounded=0;orthogonalLoop=1;jettySize=auto;html=1;exitX=1;exitY=1;exitDx=0;exitDy=0;entryX=0;entryY=0;entryDx=0;entryDy=0;labelBackgroundColor=default;strokeColor=default;align=center;verticalAlign=middle;fontFamily=Times New Roman;fontSize=18;fontColor=default;endArrow=none;endFill=0;" parent="1" source="ZBjMDcbzEfycAEF8BUTq-13" target="ZBjMDcbzEfycAEF8BUTq-16" edge="1">
          <mxGeometry relative="1" as="geometry" />
        </mxCell>
        <mxCell id="ZBjMDcbzEfycAEF8BUTq-13" value="A" style="ellipse;whiteSpace=wrap;html=1;aspect=fixed;fontFamily=Times New Roman;fontSize=18;fillColor=none;strokeColor=#000000;gradientColor=#7ea6e0;" parent="1" vertex="1">
          <mxGeometry x="280" y="125" width="30" height="30" as="geometry" />
        </mxCell>
        <mxCell id="ZBjMDcbzEfycAEF8BUTq-25" style="edgeStyle=none;shape=connector;rounded=0;orthogonalLoop=1;jettySize=auto;html=1;exitX=1;exitY=1;exitDx=0;exitDy=0;entryX=0;entryY=0;entryDx=0;entryDy=0;labelBackgroundColor=default;strokeColor=default;align=center;verticalAlign=middle;fontFamily=Times New Roman;fontSize=18;fontColor=default;endArrow=none;endFill=0;" parent="1" source="ZBjMDcbzEfycAEF8BUTq-14" target="ZBjMDcbzEfycAEF8BUTq-15" edge="1">
          <mxGeometry relative="1" as="geometry" />
        </mxCell>
        <mxCell id="ZBjMDcbzEfycAEF8BUTq-14" value="B" style="ellipse;whiteSpace=wrap;html=1;aspect=fixed;fontFamily=Times New Roman;fontSize=18;fillColor=none;strokeColor=#000000;gradientColor=#7ea6e0;" parent="1" vertex="1">
          <mxGeometry x="240" y="170" width="30" height="30" as="geometry" />
        </mxCell>
        <mxCell id="ZBjMDcbzEfycAEF8BUTq-15" value="C" style="ellipse;whiteSpace=wrap;html=1;aspect=fixed;fontFamily=Times New Roman;fontSize=18;fillColor=none;strokeColor=#000000;gradientColor=#7ea6e0;" parent="1" vertex="1">
          <mxGeometry x="280" y="220" width="30" height="30" as="geometry" />
        </mxCell>
        <mxCell id="ZBjMDcbzEfycAEF8BUTq-28" style="edgeStyle=none;shape=connector;rounded=0;orthogonalLoop=1;jettySize=auto;html=1;exitX=0;exitY=1;exitDx=0;exitDy=0;entryX=1;entryY=0;entryDx=0;entryDy=0;labelBackgroundColor=default;strokeColor=default;align=center;verticalAlign=middle;fontFamily=Times New Roman;fontSize=18;fontColor=default;endArrow=none;endFill=0;" parent="1" source="ZBjMDcbzEfycAEF8BUTq-16" target="ZBjMDcbzEfycAEF8BUTq-15" edge="1">
          <mxGeometry relative="1" as="geometry" />
        </mxCell>
        <mxCell id="ZBjMDcbzEfycAEF8BUTq-33" style="edgeStyle=none;shape=connector;rounded=0;orthogonalLoop=1;jettySize=auto;html=1;exitX=1;exitY=1;exitDx=0;exitDy=0;entryX=0;entryY=0;entryDx=0;entryDy=0;labelBackgroundColor=default;strokeColor=default;align=center;verticalAlign=middle;fontFamily=Times New Roman;fontSize=18;fontColor=default;endArrow=none;endFill=0;" parent="1" source="ZBjMDcbzEfycAEF8BUTq-16" target="ZBjMDcbzEfycAEF8BUTq-20" edge="1">
          <mxGeometry relative="1" as="geometry" />
        </mxCell>
        <mxCell id="ZBjMDcbzEfycAEF8BUTq-16" value="B" style="ellipse;whiteSpace=wrap;html=1;aspect=fixed;fontFamily=Times New Roman;fontSize=18;fillColor=none;strokeColor=#000000;gradientColor=#7ea6e0;" parent="1" vertex="1">
          <mxGeometry x="320" y="170" width="30" height="30" as="geometry" />
        </mxCell>
        <mxCell id="ZBjMDcbzEfycAEF8BUTq-30" style="edgeStyle=none;shape=connector;rounded=0;orthogonalLoop=1;jettySize=auto;html=1;exitX=0;exitY=1;exitDx=0;exitDy=0;entryX=1;entryY=0;entryDx=0;entryDy=0;labelBackgroundColor=default;strokeColor=default;align=center;verticalAlign=middle;fontFamily=Times New Roman;fontSize=18;fontColor=default;endArrow=none;endFill=0;" parent="1" source="ZBjMDcbzEfycAEF8BUTq-18" target="ZBjMDcbzEfycAEF8BUTq-16" edge="1">
          <mxGeometry relative="1" as="geometry" />
        </mxCell>
        <mxCell id="ZBjMDcbzEfycAEF8BUTq-41" style="edgeStyle=none;shape=connector;rounded=0;orthogonalLoop=1;jettySize=auto;html=1;exitX=1;exitY=1;exitDx=0;exitDy=0;entryX=0;entryY=0;entryDx=0;entryDy=0;labelBackgroundColor=default;strokeColor=default;align=center;verticalAlign=middle;fontFamily=Times New Roman;fontSize=18;fontColor=default;endArrow=none;endFill=0;" parent="1" source="ZBjMDcbzEfycAEF8BUTq-18" target="ZBjMDcbzEfycAEF8BUTq-38" edge="1">
          <mxGeometry relative="1" as="geometry" />
        </mxCell>
        <mxCell id="ZBjMDcbzEfycAEF8BUTq-18" value="A" style="ellipse;whiteSpace=wrap;html=1;aspect=fixed;fontFamily=Times New Roman;fontSize=18;" parent="1" vertex="1">
          <mxGeometry x="360" y="125" width="30" height="30" as="geometry" />
        </mxCell>
        <mxCell id="ZBjMDcbzEfycAEF8BUTq-20" value="C" style="ellipse;whiteSpace=wrap;html=1;aspect=fixed;fontFamily=Times New Roman;fontSize=18;" parent="1" vertex="1">
          <mxGeometry x="360" y="220" width="30" height="30" as="geometry" />
        </mxCell>
        <mxCell id="ZBjMDcbzEfycAEF8BUTq-42" style="edgeStyle=none;shape=connector;rounded=0;orthogonalLoop=1;jettySize=auto;html=1;exitX=0;exitY=1;exitDx=0;exitDy=0;entryX=1;entryY=0;entryDx=0;entryDy=0;labelBackgroundColor=default;strokeColor=default;align=center;verticalAlign=middle;fontFamily=Times New Roman;fontSize=18;fontColor=default;endArrow=none;endFill=0;" parent="1" source="ZBjMDcbzEfycAEF8BUTq-38" target="ZBjMDcbzEfycAEF8BUTq-20" edge="1">
          <mxGeometry relative="1" as="geometry" />
        </mxCell>
        <mxCell id="ZBjMDcbzEfycAEF8BUTq-38" value="B" style="ellipse;whiteSpace=wrap;html=1;aspect=fixed;fontFamily=Times New Roman;fontSize=18;" parent="1" vertex="1">
          <mxGeometry x="400" y="170" width="30" height="30" as="geometry" />
        </mxCell>
        <mxCell id="ZBjMDcbzEfycAEF8BUTq-120" value="" style="group;fontFamily=Times New Roman;fontSize=18;" parent="1" vertex="1" connectable="0">
          <mxGeometry x="490" y="164" width="160" height="75" as="geometry" />
        </mxCell>
        <mxCell id="ZBjMDcbzEfycAEF8BUTq-108" value="$$u_0$$" style="rounded=0;whiteSpace=wrap;html=1;fontFamily=Times New Roman;fontSize=18;fontColor=default;" parent="ZBjMDcbzEfycAEF8BUTq-120" vertex="1">
          <mxGeometry x="40" width="40" height="25" as="geometry" />
        </mxCell>
        <mxCell id="ZBjMDcbzEfycAEF8BUTq-109" value="$$u_1$$" style="rounded=0;whiteSpace=wrap;html=1;fontFamily=Times New Roman;fontSize=18;fontColor=default;" parent="ZBjMDcbzEfycAEF8BUTq-120" vertex="1">
          <mxGeometry x="80" width="40" height="25" as="geometry" />
        </mxCell>
        <mxCell id="ZBjMDcbzEfycAEF8BUTq-110" value="$$u_2$$" style="rounded=0;whiteSpace=wrap;html=1;fontFamily=Times New Roman;fontSize=18;fontColor=default;" parent="ZBjMDcbzEfycAEF8BUTq-120" vertex="1">
          <mxGeometry x="120" width="40" height="25" as="geometry" />
        </mxCell>
        <mxCell id="ZBjMDcbzEfycAEF8BUTq-111" value="$$m_0$$" style="rounded=0;whiteSpace=wrap;html=1;fontFamily=Times New Roman;fontSize=18;fontColor=default;" parent="ZBjMDcbzEfycAEF8BUTq-120" vertex="1">
          <mxGeometry y="25" width="40" height="25" as="geometry" />
        </mxCell>
        <mxCell id="ZBjMDcbzEfycAEF8BUTq-112" value="$$v_0$$" style="rounded=0;whiteSpace=wrap;html=1;fontFamily=Times New Roman;fontSize=18;fontColor=default;" parent="ZBjMDcbzEfycAEF8BUTq-120" vertex="1">
          <mxGeometry x="40" y="25" width="40" height="25" as="geometry" />
        </mxCell>
        <mxCell id="ZBjMDcbzEfycAEF8BUTq-113" value="$$v_2$$" style="rounded=0;whiteSpace=wrap;html=1;fontFamily=Times New Roman;fontSize=18;fontColor=default;" parent="ZBjMDcbzEfycAEF8BUTq-120" vertex="1">
          <mxGeometry x="80" y="25" width="40" height="25" as="geometry" />
        </mxCell>
        <mxCell id="ZBjMDcbzEfycAEF8BUTq-114" value="$$v_5$$" style="rounded=0;whiteSpace=wrap;html=1;fontFamily=Times New Roman;fontSize=18;fontColor=default;" parent="ZBjMDcbzEfycAEF8BUTq-120" vertex="1">
          <mxGeometry x="120" y="25" width="40" height="25" as="geometry" />
        </mxCell>
        <mxCell id="ZBjMDcbzEfycAEF8BUTq-115" value="Q" style="rounded=0;whiteSpace=wrap;html=1;fontFamily=Times New Roman;fontSize=18;fontColor=default;" parent="ZBjMDcbzEfycAEF8BUTq-120" vertex="1">
          <mxGeometry width="40" height="25" as="geometry" />
        </mxCell>
        <mxCell id="ZBjMDcbzEfycAEF8BUTq-116" value="$$m_1$$" style="rounded=0;whiteSpace=wrap;html=1;fontFamily=Times New Roman;fontSize=18;fontColor=default;" parent="ZBjMDcbzEfycAEF8BUTq-120" vertex="1">
          <mxGeometry y="50" width="40" height="25" as="geometry" />
        </mxCell>
        <mxCell id="ZBjMDcbzEfycAEF8BUTq-117" value="$$v_0$$" style="rounded=0;whiteSpace=wrap;html=1;fontFamily=Times New Roman;fontSize=18;fontColor=default;" parent="ZBjMDcbzEfycAEF8BUTq-120" vertex="1">
          <mxGeometry x="40" y="50" width="40" height="25" as="geometry" />
        </mxCell>
        <mxCell id="ZBjMDcbzEfycAEF8BUTq-118" value="$$v_3$$" style="rounded=0;whiteSpace=wrap;html=1;fontFamily=Times New Roman;fontSize=18;fontColor=default;" parent="ZBjMDcbzEfycAEF8BUTq-120" vertex="1">
          <mxGeometry x="80" y="50" width="40" height="25" as="geometry" />
        </mxCell>
        <mxCell id="ZBjMDcbzEfycAEF8BUTq-119" value="$$v_5$$" style="rounded=0;whiteSpace=wrap;html=1;fontFamily=Times New Roman;fontSize=18;fontColor=default;" parent="ZBjMDcbzEfycAEF8BUTq-120" vertex="1">
          <mxGeometry x="120" y="50" width="40" height="25" as="geometry" />
        </mxCell>
        <mxCell id="ZBjMDcbzEfycAEF8BUTq-121" value="$$v_0$$" style="text;html=1;strokeColor=none;fillColor=none;align=center;verticalAlign=middle;whiteSpace=wrap;rounded=0;fontSize=18;fontFamily=Times New Roman;fontColor=default;" parent="1" vertex="1">
          <mxGeometry x="265" y="95" width="60" height="30" as="geometry" />
        </mxCell>
        <mxCell id="ZBjMDcbzEfycAEF8BUTq-122" value="$$v_1$$" style="text;html=1;strokeColor=none;fillColor=none;align=center;verticalAlign=middle;whiteSpace=wrap;rounded=0;fontSize=18;fontFamily=Times New Roman;fontColor=default;" parent="1" vertex="1">
          <mxGeometry x="350" y="100" width="60" height="30" as="geometry" />
        </mxCell>
        <mxCell id="ZBjMDcbzEfycAEF8BUTq-123" value="$$v_2$$" style="text;html=1;strokeColor=none;fillColor=none;align=center;verticalAlign=middle;whiteSpace=wrap;rounded=0;fontSize=18;fontFamily=Times New Roman;fontColor=default;" parent="1" vertex="1">
          <mxGeometry x="197.5" y="167" width="60" height="30" as="geometry" />
        </mxCell>
        <mxCell id="ZBjMDcbzEfycAEF8BUTq-125" value="$$v_3$$" style="text;html=1;strokeColor=none;fillColor=none;align=center;verticalAlign=middle;whiteSpace=wrap;rounded=0;fontSize=18;fontFamily=Times New Roman;fontColor=default;" parent="1" vertex="1">
          <mxGeometry x="280" y="167" width="60" height="30" as="geometry" />
        </mxCell>
        <mxCell id="ZBjMDcbzEfycAEF8BUTq-126" value="$$v_4$$" style="text;html=1;strokeColor=none;fillColor=none;align=center;verticalAlign=middle;whiteSpace=wrap;rounded=0;fontSize=18;fontFamily=Times New Roman;fontColor=default;" parent="1" vertex="1">
          <mxGeometry x="360" y="170" width="60" height="30" as="geometry" />
        </mxCell>
        <mxCell id="ZBjMDcbzEfycAEF8BUTq-127" value="$$v_5$$" style="text;html=1;strokeColor=none;fillColor=none;align=center;verticalAlign=middle;whiteSpace=wrap;rounded=0;fontSize=18;fontFamily=Times New Roman;fontColor=default;" parent="1" vertex="1">
          <mxGeometry x="265" y="246" width="60" height="30" as="geometry" />
        </mxCell>
        <mxCell id="ZBjMDcbzEfycAEF8BUTq-128" value="$$v_6$$" style="text;html=1;strokeColor=none;fillColor=none;align=center;verticalAlign=middle;whiteSpace=wrap;rounded=0;fontSize=18;fontFamily=Times New Roman;fontColor=default;" parent="1" vertex="1">
          <mxGeometry x="345" y="246" width="60" height="30" as="geometry" />
        </mxCell>
        <mxCell id="ZBjMDcbzEfycAEF8BUTq-129" value="&lt;font style=&quot;font-size: 18px;&quot;&gt;(a) Query Graph Q&lt;/font&gt;" style="text;html=1;strokeColor=none;fillColor=none;align=center;verticalAlign=middle;whiteSpace=wrap;rounded=0;fontSize=18;fontFamily=Times New Roman;fontColor=default;" parent="1" vertex="1">
          <mxGeometry x="58.5" y="289" width="141" height="20" as="geometry" />
        </mxCell>
        <mxCell id="ZBjMDcbzEfycAEF8BUTq-130" value="&lt;font style=&quot;font-size: 18px;&quot;&gt;(b) Data Graph G&lt;/font&gt;" style="text;html=1;strokeColor=none;fillColor=none;align=center;verticalAlign=middle;whiteSpace=wrap;rounded=0;fontSize=18;fontFamily=Times New Roman;fontColor=default;" parent="1" vertex="1">
          <mxGeometry x="254" y="289" width="151" height="20" as="geometry" />
        </mxCell>
        <mxCell id="ZBjMDcbzEfycAEF8BUTq-131" value="&lt;font style=&quot;font-size: 18px;&quot;&gt;(c) Answers&lt;/font&gt;" style="text;html=1;strokeColor=none;fillColor=none;align=center;verticalAlign=middle;whiteSpace=wrap;rounded=0;fontSize=18;fontFamily=Times New Roman;fontColor=default;" parent="1" vertex="1">
          <mxGeometry x="490" y="289" width="150" height="14" as="geometry" />
        </mxCell>
        <mxCell id="O2bH0iOGO9eqXiFa1XXx-3" value="$$matching\ oder:\{u_0,u_1,u_2\}$$" style="text;html=1;strokeColor=none;fillColor=none;align=center;verticalAlign=middle;whiteSpace=wrap;rounded=0;fontFamily=Times New Roman;fontSize=18;" vertex="1" parent="1">
          <mxGeometry x="510" y="120" width="130" height="30" as="geometry" />
        </mxCell>
      </root>
    </mxGraphModel>
  </diagram>
</mxfile>
